# xmcd
#
# Track frame offsets:
#	150
#	13691
#	30197
#	48611
#	64150
#	79364
#	93472
#	109329
#	125409
#	141085
#
# Disc length: 2077 seconds
#
# Revision: 1
# Processed by: cddbd v1.5.2PL0 Copyright (c) Steve Scherf et al.
# Submitted via: audiograbber 1.83.01
#
DISCID=85081b0a
DTITLE=Shane Yellowbird - It's About Time
DYEAR=2009
DGENRE=Country
TTITLE0=Bare Foot On The Blacktop
TTITLE1=Watching You Walk Away
TTITLE2=I Get That A Lot These Days
TTITLE3=I Can Help You With That
TTITLE4=My Kind Of Crowd
TTITLE5=Next Time I Leave
TTITLE6=Between You And Me
TTITLE7=Sedona Arizona
TTITLE8=Pabst Blue Ribbon
TTITLE9=It's About Time
EXTD=
EXTT0=
EXTT1=
EXTT2=
EXTT3=
EXTT4=
EXTT5=
EXTT6=
EXTT7=
EXTT8=
EXTT9=
PLAYORDER=
